<svg xmlns="http://www.w3.org/2000/svg" viewBox="0 0 120 120" width="120" height="120">
  <defs>
    <linearGradient id="g" x1="0" y1="0" x2="1" y2="1">
      <stop offset="0" stop-color="#8A2BE2"/><stop offset="1" stop-color="#FF6F00"/>
    </linearGradient>
  </defs>
  <rect x="6" y="6" width="108" height="108" rx="24" fill="#0f1222"/>
  <!-- incoming frames -->
  <g fill="#6b7280">
    <rect x="28" y="22" width="13" height="10" rx="2"/>
    <rect x="46" y="20" width="13" height="10" rx="2"/>
    <rect x="64" y="22" width="13" height="10" rx="2"/>
    <rect x="82" y="20" width="13" height="10" rx="2"/>
    <rect x="37" y="34" width="13" height="10" rx="2"/>
    <rect x="55" y="34" width="13" height="10" rx="2"/>
    <rect x="73" y="34" width="13" height="10" rx="2"/>
  </g>
  <!-- funnel / sieve -->
  <path d="M26 50 H94 L70 78 V96 L50 96 V78 Z" fill="none" stroke="url(#g)" stroke-width="4" stroke-linejoin="round"/>
  <line x1="32" y1="58" x2="88" y2="58" stroke="url(#g)" stroke-width="2" opacity="0.6"/>
  <!-- the keeper -->
  <rect x="52" y="83" width="16" height="11" rx="2" fill="url(#g)"/>
  <path d="M56 88 l3 3 l5 -6" fill="none" stroke="#0f1222" stroke-width="2" stroke-linecap="round" stroke-linejoin="round"/>
</svg>
